# xmcd
#
# Track frame offsets:
#	150
#	17718
#	39491
#	58273
#	72541
#	94859
#	114346
#	137805
#	197614
#	211399
#
# Disc length: 3095 seconds
#
# Revision: 65533
# Processed by: cddbd v1.5.2PL0 Copyright (c) Steve Scherf et al.
# Submitted via: EZCDAudioConverter 8.5.0.1
#
DISCID=920c150a
DTITLE=Blue Blot - Live [CD2)
DYEAR=1993
DGENRE=Blues
TTITLE0=Move On Up (Live)
TTITLE1=IRS Blues (Live)
TTITLE2=Bad Luck Hand (Live)
TTITLE3=Hold The Line (Live)
TTITLE4=Bridge To Your Heart (Live)
TTITLE5=Hold On To Love (Live)
TTITLE6=Shopping For Love (Live)
TTITLE7=Who Is He (Live)
TTITLE8=Love Bug (Live)
TTITLE9=These Arms Of Mine (Live)
EXTD=
EXTT0=
EXTT1=
EXTT2=
EXTT3=
EXTT4=
EXTT5=
EXTT6=
EXTT7=
EXTT8=
EXTT9=
PLAYORDER=
